<?xml version="1.0" encoding="UTF-8" standalone="no"?>
<!DOCTYPE svg PUBLIC "-//W3C//DTD SVG 1.1//EN"
 "http://www.w3.org/Graphics/SVG/1.1/DTD/svg11.dtd">
<!-- Generated by graphviz version 2.36.0 (20140111.2315)
 -->
<!-- Title: controllers_diagram Pages: 1 -->
<svg width="590pt" height="621pt"
 viewBox="0.00 0.00 590.00 621.00" xmlns="http://www.w3.org/2000/svg" xmlns:xlink="http://www.w3.org/1999/xlink">
<g id="graph0" class="graph" transform="scale(1 1) rotate(0) translate(4 617)">
<title>controllers_diagram</title>
<polygon fill="none" stroke="none" points="-4,4 -4,-617 586,-617 586,4 -4,4"/>
<!-- _diagram_info -->
<g id="node1" class="node"><title>_diagram_info</title>
<text text-anchor="start" x="134" y="-459.6" font-family="Times,serif" font-size="13.00">Controllers diagram</text>
<text text-anchor="start" x="134" y="-445.6" font-family="Times,serif" font-size="13.00">Date: Jun 10 2018 &#45; 07:37</text>
<text text-anchor="start" x="134" y="-431.6" font-family="Times,serif" font-size="13.00">Migration version: 20110917175511</text>
<text text-anchor="start" x="134" y="-417.6" font-family="Times,serif" font-size="13.00">Generated by RailRoady 1.5.3</text>
<text text-anchor="start" x="134" y="-403.6" font-family="Times,serif" font-size="13.00">http://railroady.prestonlee.com</text>
</g>
<!-- PagesController -->
<g id="node2" class="node"><title>PagesController</title>
<path fill="none" stroke="black" d="M192,-18.5C192,-18.5 272,-18.5 272,-18.5 278,-18.5 284,-24.5 284,-30.5 284,-30.5 284,-99.5 284,-99.5 284,-105.5 278,-111.5 272,-111.5 272,-111.5 192,-111.5 192,-111.5 186,-111.5 180,-105.5 180,-99.5 180,-99.5 180,-30.5 180,-30.5 180,-24.5 186,-18.5 192,-18.5"/>
<text text-anchor="middle" x="232" y="-96.3" font-family="Times,serif" font-size="14.00">PagesController</text>
<polyline fill="none" stroke="black" points="180,-88.5 284,-88.5 "/>
<text text-anchor="start" x="188" y="-73.3" font-family="Times,serif" font-size="14.00">show</text>
<polyline fill="none" stroke="black" points="180,-65.5 284,-65.5 "/>
<polyline fill="none" stroke="black" points="180,-41.5 284,-41.5 "/>
<text text-anchor="start" x="188" y="-26.3" font-family="Times,serif" font-size="14.00">_layout</text>
</g>
<!-- NewsArticlesController -->
<g id="node3" class="node"><title>NewsArticlesController</title>
<path fill="none" stroke="black" d="M390,-126.5C390,-126.5 570,-126.5 570,-126.5 576,-126.5 582,-132.5 582,-138.5 582,-138.5 582,-297.5 582,-297.5 582,-303.5 576,-309.5 570,-309.5 570,-309.5 390,-309.5 390,-309.5 384,-309.5 378,-303.5 378,-297.5 378,-297.5 378,-138.5 378,-138.5 378,-132.5 384,-126.5 390,-126.5"/>
<text text-anchor="middle" x="480" y="-294.3" font-family="Times,serif" font-size="14.00">NewsArticlesController</text>
<polyline fill="none" stroke="black" points="378,-286.5 582,-286.5 "/>
<text text-anchor="start" x="386" y="-271.3" font-family="Times,serif" font-size="14.00">_one_time_conditions_valid_374?</text>
<text text-anchor="start" x="386" y="-256.3" font-family="Times,serif" font-size="14.00">index</text>
<text text-anchor="start" x="386" y="-241.3" font-family="Times,serif" font-size="14.00">moderate</text>
<text text-anchor="start" x="386" y="-226.3" font-family="Times,serif" font-size="14.00">moderate_approved</text>
<text text-anchor="start" x="386" y="-211.3" font-family="Times,serif" font-size="14.00">show</text>
<text text-anchor="start" x="386" y="-196.3" font-family="Times,serif" font-size="14.00">update</text>
<polyline fill="none" stroke="black" points="378,-188.5 582,-188.5 "/>
<polyline fill="none" stroke="black" points="378,-164.5 582,-164.5 "/>
<text text-anchor="start" x="386" y="-149.3" font-family="Times,serif" font-size="14.00">_layout</text>
<text text-anchor="start" x="386" y="-134.3" font-family="Times,serif" font-size="14.00">_run_process_action_callbacks</text>
</g>
<!-- ConstituenciesController -->
<g id="node4" class="node"><title>ConstituenciesController</title>
<path fill="none" stroke="black" d="M12,-0.5C12,-0.5 140,-0.5 140,-0.5 146,-0.5 152,-6.5 152,-12.5 152,-12.5 152,-96.5 152,-96.5 152,-102.5 146,-108.5 140,-108.5 140,-108.5 12,-108.5 12,-108.5 6,-108.5 0,-102.5 0,-96.5 0,-96.5 0,-12.5 0,-12.5 0,-6.5 6,-0.5 12,-0.5"/>
<text text-anchor="middle" x="76" y="-93.3" font-family="Times,serif" font-size="14.00">ConstituenciesController</text>
<polyline fill="none" stroke="black" points="0,-85.5 152,-85.5 "/>
<text text-anchor="start" x="8" y="-70.3" font-family="Times,serif" font-size="14.00">index</text>
<text text-anchor="start" x="8" y="-55.3" font-family="Times,serif" font-size="14.00">show</text>
<polyline fill="none" stroke="black" points="0,-47.5 152,-47.5 "/>
<polyline fill="none" stroke="black" points="0,-23.5 152,-23.5 "/>
<text text-anchor="start" x="8" y="-8.3" font-family="Times,serif" font-size="14.00">_layout</text>
</g>
<!-- InfoController -->
<g id="node5" class="node"><title>InfoController</title>
<path fill="none" stroke="black" d="M12,-198.5C12,-198.5 95,-198.5 95,-198.5 101,-198.5 107,-204.5 107,-210.5 107,-210.5 107,-339.5 107,-339.5 107,-345.5 101,-351.5 95,-351.5 95,-351.5 12,-351.5 12,-351.5 6,-351.5 0,-345.5 0,-339.5 0,-339.5 0,-210.5 0,-210.5 0,-204.5 6,-198.5 12,-198.5"/>
<text text-anchor="middle" x="53.5" y="-336.3" font-family="Times,serif" font-size="14.00">InfoController</text>
<polyline fill="none" stroke="black" points="0,-328.5 107,-328.5 "/>
<text text-anchor="start" x="8" y="-313.3" font-family="Times,serif" font-size="14.00">byelection_2012</text>
<text text-anchor="start" x="8" y="-298.3" font-family="Times,serif" font-size="14.00">historic</text>
<text text-anchor="start" x="8" y="-283.3" font-family="Times,serif" font-size="14.00">index</text>
<text text-anchor="start" x="8" y="-268.3" font-family="Times,serif" font-size="14.00">regions</text>
<text text-anchor="start" x="8" y="-253.3" font-family="Times,serif" font-size="14.00">search</text>
<polyline fill="none" stroke="black" points="0,-245.5 107,-245.5 "/>
<polyline fill="none" stroke="black" points="0,-221.5 107,-221.5 "/>
<text text-anchor="start" x="8" y="-206.3" font-family="Times,serif" font-size="14.00">_layout</text>
</g>
<!-- IssuesController -->
<g id="node6" class="node"><title>IssuesController</title>
<path fill="none" stroke="black" d="M336,-0.5C336,-0.5 417,-0.5 417,-0.5 423,-0.5 429,-6.5 429,-12.5 429,-12.5 429,-81.5 429,-81.5 429,-87.5 423,-93.5 417,-93.5 417,-93.5 336,-93.5 336,-93.5 330,-93.5 324,-87.5 324,-81.5 324,-81.5 324,-12.5 324,-12.5 324,-6.5 330,-0.5 336,-0.5"/>
<text text-anchor="middle" x="376.5" y="-78.3" font-family="Times,serif" font-size="14.00">IssuesController</text>
<polyline fill="none" stroke="black" points="324,-70.5 429,-70.5 "/>
<text text-anchor="start" x="332" y="-55.3" font-family="Times,serif" font-size="14.00">index</text>
<polyline fill="none" stroke="black" points="324,-47.5 429,-47.5 "/>
<polyline fill="none" stroke="black" points="324,-23.5 429,-23.5 "/>
<text text-anchor="start" x="332" y="-8.3" font-family="Times,serif" font-size="14.00">_layout</text>
</g>
<!-- ApplicationController -->
<g id="node7" class="node"><title>ApplicationController</title>
<path fill="none" stroke="black" d="M156,-504.5C156,-504.5 329,-504.5 329,-504.5 335,-504.5 341,-510.5 341,-516.5 341,-516.5 341,-600.5 341,-600.5 341,-606.5 335,-612.5 329,-612.5 329,-612.5 156,-612.5 156,-612.5 150,-612.5 144,-606.5 144,-600.5 144,-600.5 144,-516.5 144,-516.5 144,-510.5 150,-504.5 156,-504.5"/>
<text text-anchor="middle" x="242.5" y="-597.3" font-family="Times,serif" font-size="14.00">ApplicationController</text>
<polyline fill="none" stroke="black" points="144,-589.5 341,-589.5 "/>
<text text-anchor="start" x="152" y="-574.3" font-family="Times,serif" font-size="14.00">_one_time_conditions_valid_24?</text>
<polyline fill="none" stroke="black" points="144,-566.5 341,-566.5 "/>
<polyline fill="none" stroke="black" points="144,-542.5 341,-542.5 "/>
<text text-anchor="start" x="152" y="-527.3" font-family="Times,serif" font-size="14.00">_layout</text>
<text text-anchor="start" x="152" y="-512.3" font-family="Times,serif" font-size="14.00">_run_process_action_callbacks</text>
</g>
<!-- PoliticiansController -->
<g id="node8" class="node"><title>PoliticiansController</title>
<path fill="none" stroke="black" d="M156,-144.5C156,-144.5 336,-144.5 336,-144.5 342,-144.5 348,-150.5 348,-156.5 348,-156.5 348,-345.5 348,-345.5 348,-351.5 342,-357.5 336,-357.5 336,-357.5 156,-357.5 156,-357.5 150,-357.5 144,-351.5 144,-345.5 144,-345.5 144,-156.5 144,-156.5 144,-150.5 150,-144.5 156,-144.5"/>
<text text-anchor="middle" x="246" y="-342.3" font-family="Times,serif" font-size="14.00">PoliticiansController</text>
<polyline fill="none" stroke="black" points="144,-334.5 348,-334.5 "/>
<text text-anchor="start" x="152" y="-319.3" font-family="Times,serif" font-size="14.00">_one_time_conditions_valid_378?</text>
<text text-anchor="start" x="152" y="-304.3" font-family="Times,serif" font-size="14.00">contacts</text>
<text text-anchor="start" x="152" y="-289.3" font-family="Times,serif" font-size="14.00">incumbents</text>
<text text-anchor="start" x="152" y="-274.3" font-family="Times,serif" font-size="14.00">index</text>
<text text-anchor="start" x="152" y="-259.3" font-family="Times,serif" font-size="14.00">questionnaires</text>
<text text-anchor="start" x="152" y="-244.3" font-family="Times,serif" font-size="14.00">show</text>
<text text-anchor="start" x="152" y="-229.3" font-family="Times,serif" font-size="14.00">tweets</text>
<text text-anchor="start" x="152" y="-214.3" font-family="Times,serif" font-size="14.00">twitter</text>
<polyline fill="none" stroke="black" points="144,-206.5 348,-206.5 "/>
<polyline fill="none" stroke="black" points="144,-182.5 348,-182.5 "/>
<text text-anchor="start" x="152" y="-167.3" font-family="Times,serif" font-size="14.00">_layout</text>
<text text-anchor="start" x="152" y="-152.3" font-family="Times,serif" font-size="14.00">_run_process_action_callbacks</text>
</g>
<!-- PartiesController -->
<g id="node9" class="node"><title>PartiesController</title>
<path fill="none" stroke="black" d="M12,-504.5C12,-504.5 97,-504.5 97,-504.5 103,-504.5 109,-510.5 109,-516.5 109,-516.5 109,-600.5 109,-600.5 109,-606.5 103,-612.5 97,-612.5 97,-612.5 12,-612.5 12,-612.5 6,-612.5 0,-606.5 0,-600.5 0,-600.5 0,-516.5 0,-516.5 0,-510.5 6,-504.5 12,-504.5"/>
<text text-anchor="middle" x="54.5" y="-597.3" font-family="Times,serif" font-size="14.00">PartiesController</text>
<polyline fill="none" stroke="black" points="0,-589.5 109,-589.5 "/>
<text text-anchor="start" x="8" y="-574.3" font-family="Times,serif" font-size="14.00">index</text>
<text text-anchor="start" x="8" y="-559.3" font-family="Times,serif" font-size="14.00">show</text>
<polyline fill="none" stroke="black" points="0,-551.5 109,-551.5 "/>
<polyline fill="none" stroke="black" points="0,-527.5 109,-527.5 "/>
<text text-anchor="start" x="8" y="-512.3" font-family="Times,serif" font-size="14.00">_layout</text>
</g>
<!-- MapsController -->
<g id="node10" class="node"><title>MapsController</title>
<path fill="none" stroke="black" d="M390,-342.5C390,-342.5 570,-342.5 570,-342.5 576,-342.5 582,-348.5 582,-354.5 582,-354.5 582,-498.5 582,-498.5 582,-504.5 576,-510.5 570,-510.5 570,-510.5 390,-510.5 390,-510.5 384,-510.5 378,-504.5 378,-498.5 378,-498.5 378,-354.5 378,-354.5 378,-348.5 384,-342.5 390,-342.5"/>
<text text-anchor="middle" x="480" y="-495.3" font-family="Times,serif" font-size="14.00">MapsController</text>
<polyline fill="none" stroke="black" points="378,-487.5 582,-487.5 "/>
<text text-anchor="start" x="386" y="-472.3" font-family="Times,serif" font-size="14.00">_one_time_conditions_valid_382?</text>
<text text-anchor="start" x="386" y="-457.3" font-family="Times,serif" font-size="14.00">edit</text>
<text text-anchor="start" x="386" y="-442.3" font-family="Times,serif" font-size="14.00">index</text>
<text text-anchor="start" x="386" y="-427.3" font-family="Times,serif" font-size="14.00">show</text>
<text text-anchor="start" x="386" y="-412.3" font-family="Times,serif" font-size="14.00">update</text>
<polyline fill="none" stroke="black" points="378,-404.5 582,-404.5 "/>
<polyline fill="none" stroke="black" points="378,-380.5 582,-380.5 "/>
<text text-anchor="start" x="386" y="-365.3" font-family="Times,serif" font-size="14.00">_layout</text>
<text text-anchor="start" x="386" y="-350.3" font-family="Times,serif" font-size="14.00">_run_process_action_callbacks</text>
</g>
</g>
</svg>
