<?xml version="1.0" encoding="UTF-8" standalone="no"?>
<!DOCTYPE svg PUBLIC "-//W3C//DTD SVG 1.1//EN"
 "http://www.w3.org/Graphics/SVG/1.1/DTD/svg11.dtd">
<!-- Generated by graphviz version 2.36.0 (20140111.2315)
 -->
<!-- Title: models_diagram Pages: 1 -->
<svg width="1067pt" height="336pt"
 viewBox="0.00 0.00 1067.09 336.00" xmlns="http://www.w3.org/2000/svg" xmlns:xlink="http://www.w3.org/1999/xlink">
<g id="graph0" class="graph" transform="scale(1 1) rotate(0) translate(4 332)">
<title>models_diagram</title>
<polygon fill="none" stroke="none" points="-4,4 -4,-332 1063.09,-332 1063.09,4 -4,4"/>
<!-- _diagram_info -->
<g id="node1" class="node"><title>_diagram_info</title>
<text text-anchor="start" x="179.094" y="-313.6" font-family="Times,serif" font-size="13.00">Models diagram</text>
<text text-anchor="start" x="179.094" y="-299.6" font-family="Times,serif" font-size="13.00">Date: Jun 10 2018 &#45; 07:37</text>
<text text-anchor="start" x="179.094" y="-285.6" font-family="Times,serif" font-size="13.00">Migration version: 20110917175511</text>
<text text-anchor="start" x="179.094" y="-271.6" font-family="Times,serif" font-size="13.00">Generated by RailRoady 1.5.3</text>
<text text-anchor="start" x="179.094" y="-257.6" font-family="Times,serif" font-size="13.00">http://railroady.prestonlee.com</text>
</g>
<!-- Map -->
<g id="node2" class="node"><title>Map</title>
<ellipse fill="none" stroke="black" cx="48.0942" cy="-194" rx="26.949" ry="18"/>
<text text-anchor="middle" x="48.0942" y="-190.3" font-family="Times,serif" font-size="14.00">Map</text>
</g>
<!-- Polygon -->
<g id="node4" class="node"><title>Polygon</title>
<ellipse fill="none" stroke="black" cx="195.094" cy="-106" rx="39.9464" ry="18"/>
<text text-anchor="middle" x="195.094" y="-102.3" font-family="Times,serif" font-size="14.00">Polygon</text>
</g>
<!-- Map&#45;&gt;Polygon -->
<g id="edge1" class="edge"><title>Map&#45;&gt;Polygon</title>
<path fill="none" stroke="#d52a8a" d="M74.9588,-177.283C99.7253,-162.794 136.528,-141.263 162.867,-125.854"/>
<ellipse fill="none" stroke="#d52a8a" cx="71.3718" cy="-179.382" rx="4.00002" ry="4.00002"/>
<polygon fill="#d52a8a" stroke="#d52a8a" points="163.079,-125.73 173.983,-124.565 167.395,-123.205 171.71,-120.68 171.71,-120.68 171.71,-120.68 167.395,-123.205 169.438,-116.796 163.079,-125.73 163.079,-125.73"/>
</g>
<!-- ActiveAdmin::Comment -->
<g id="node12" class="node"><title>ActiveAdmin::Comment</title>
<ellipse fill="none" stroke="black" cx="499.094" cy="-18" rx="99.1619" ry="18"/>
<text text-anchor="middle" x="499.094" y="-14.3" font-family="Times,serif" font-size="14.00">ActiveAdmin::Comment</text>
</g>
<!-- Map&#45;&gt;ActiveAdmin::Comment -->
<g id="edge2" class="edge"><title>Map&#45;&gt;ActiveAdmin::Comment</title>
<path fill="none" stroke="#7822d6" d="M28.92,-172.133C10.5424,-149.528 -11.7043,-113.313 8.09418,-88 31.7484,-57.7578 260.907,-36.1554 397.643,-25.8388"/>
<ellipse fill="none" stroke="#7822d6" cx="31.6276" cy="-175.346" rx="4.00002" ry="4.00002"/>
<polygon fill="#7822d6" stroke="#7822d6" points="397.758,-25.8303 408.065,-29.573 402.744,-25.4579 407.73,-25.0855 407.73,-25.0855 407.73,-25.0855 402.744,-25.4579 407.395,-20.598 397.758,-25.8303 397.758,-25.8303"/>
<text text-anchor="middle" x="77.0942" y="-102.3" font-family="Times,serif" font-size="14.00">active_admin_comments</text>
</g>
<!-- AdminUser -->
<g id="node3" class="node"><title>AdminUser</title>
<ellipse fill="none" stroke="black" cx="952.094" cy="-289" rx="51.4931" ry="18"/>
<text text-anchor="middle" x="952.094" y="-285.3" font-family="Times,serif" font-size="14.00">AdminUser</text>
</g>
<!-- Polygon&#45;&gt;ActiveAdmin::Comment -->
<g id="edge3" class="edge"><title>Polygon&#45;&gt;ActiveAdmin::Comment</title>
<path fill="none" stroke="#f5be8c" d="M165.092,-86.3914C152.903,-76.574 143.662,-64.4341 153.094,-54 169.053,-36.3452 296.603,-27.161 392.232,-22.7103"/>
<ellipse fill="none" stroke="#f5be8c" cx="168.447" cy="-88.8981" rx="4.00002" ry="4.00002"/>
<polygon fill="#f5be8c" stroke="#f5be8c" points="392.269,-22.7087 402.462,-26.7507 397.264,-22.482 402.258,-22.2554 402.258,-22.2554 402.258,-22.2554 397.264,-22.482 402.054,-17.76 392.269,-22.7087 392.269,-22.7087"/>
<text text-anchor="middle" x="222.094" y="-58.3" font-family="Times,serif" font-size="14.00">active_admin_comments</text>
</g>
<!-- NewsArticle -->
<g id="node5" class="node"><title>NewsArticle</title>
<ellipse fill="none" stroke="black" cx="458.094" cy="-289" rx="55.3682" ry="18"/>
<text text-anchor="middle" x="458.094" y="-285.3" font-family="Times,serif" font-size="14.00">NewsArticle</text>
</g>
<!-- Mention -->
<g id="node8" class="node"><title>Mention</title>
<ellipse fill="none" stroke="black" cx="411.094" cy="-106" rx="40.4202" ry="18"/>
<text text-anchor="middle" x="411.094" y="-102.3" font-family="Times,serif" font-size="14.00">Mention</text>
</g>
<!-- NewsArticle&#45;&gt;Mention -->
<g id="edge4" class="edge"><title>NewsArticle&#45;&gt;Mention</title>
<path fill="none" stroke="#1a1c56" d="M460.492,-262.608C462.278,-232.44 461.899,-181.258 444.094,-142 442.18,-137.779 439.544,-133.743 436.591,-130.01"/>
<ellipse fill="none" stroke="#1a1c56" cx="460.192" cy="-266.906" rx="4" ry="4"/>
<polygon fill="#1a1c56" stroke="#1a1c56" points="436.43,-129.831 433.13,-119.373 433.101,-126.1 429.772,-122.369 429.772,-122.369 429.772,-122.369 433.101,-126.1 426.415,-125.366 436.43,-129.831 436.43,-129.831"/>
</g>
<!-- Politician -->
<g id="node11" class="node"><title>Politician</title>
<ellipse fill="none" stroke="black" cx="564.094" cy="-194" rx="44.2946" ry="18"/>
<text text-anchor="middle" x="564.094" y="-190.3" font-family="Times,serif" font-size="14.00">Politician</text>
</g>
<!-- NewsArticle&#45;&gt;Politician -->
<g id="edge5" class="edge"><title>NewsArticle&#45;&gt;Politician</title>
<path fill="none" stroke="#dbb056" d="M484.119,-265.167C500.691,-250.628 522.06,-231.879 538.54,-217.42"/>
<polygon fill="#dbb056" stroke="#dbb056" points="484.075,-265.206 473.59,-268.418 480.316,-268.503 476.558,-271.801 476.558,-271.801 476.558,-271.801 480.316,-268.503 479.526,-275.183 484.075,-265.206 484.075,-265.206"/>
<polygon fill="#dbb056" stroke="#dbb056" points="538.678,-217.299 549.163,-214.087 542.437,-214.001 546.195,-210.704 546.195,-210.704 546.195,-210.704 542.437,-214.001 543.227,-207.321 538.678,-217.299 538.678,-217.299"/>
</g>
<!-- NewsArticle&#45;&gt;ActiveAdmin::Comment -->
<g id="edge6" class="edge"><title>NewsArticle&#45;&gt;ActiveAdmin::Comment</title>
<path fill="none" stroke="#34b8fc" d="M428.555,-268.018C387.193,-239.319 315.551,-186.73 302.094,-158 299.078,-151.56 300.367,-148.898 302.094,-142 312.861,-98.9872 313.924,-81.0009 349.094,-54 364.357,-42.2824 382.891,-34.3868 401.651,-29.0903"/>
<ellipse fill="none" stroke="#34b8fc" cx="431.875" cy="-270.309" rx="4.00002" ry="4.00002"/>
<polygon fill="#34b8fc" stroke="#34b8fc" points="401.784,-29.0559 412.593,-30.9076 406.625,-27.8035 411.466,-26.5511 411.466,-26.5511 411.466,-26.5511 406.625,-27.8035 410.338,-22.1945 401.784,-29.0559 401.784,-29.0559"/>
<text text-anchor="middle" x="371.094" y="-146.3" font-family="Times,serif" font-size="14.00">active_admin_comments</text>
</g>
<!-- Constituency -->
<g id="node6" class="node"><title>Constituency</title>
<ellipse fill="none" stroke="black" cx="691.094" cy="-289" rx="57.2927" ry="18"/>
<text text-anchor="middle" x="691.094" y="-285.3" font-family="Times,serif" font-size="14.00">Constituency</text>
</g>
<!-- Constituency&#45;&gt;Politician -->
<g id="edge7" class="edge"><title>Constituency&#45;&gt;Politician</title>
<path fill="none" stroke="#0c4496" d="M662.86,-267.325C642.117,-252.135 614.023,-231.562 593.1,-216.241"/>
<ellipse fill="none" stroke="#0c4496" cx="666.323" cy="-269.861" rx="4.00002" ry="4.00002"/>
<polygon fill="#0c4496" stroke="#0c4496" points="592.967,-216.143 587.558,-206.604 588.933,-213.189 584.899,-210.235 584.899,-210.235 584.899,-210.235 588.933,-213.189 582.24,-213.866 592.967,-216.143 592.967,-216.143"/>
</g>
<!-- Constituency&#45;&gt;ActiveAdmin::Comment -->
<g id="edge8" class="edge"><title>Constituency&#45;&gt;ActiveAdmin::Comment</title>
<path fill="none" stroke="#abb0ab" d="M703.269,-263.613C721.248,-223.822 749.376,-143.78 716.094,-88 701.476,-63.5003 634.363,-44.6932 578.595,-32.9476"/>
<ellipse fill="none" stroke="#abb0ab" cx="701.515" cy="-267.388" rx="4.00002" ry="4.00002"/>
<polygon fill="#abb0ab" stroke="#abb0ab" points="578.481,-32.9243 569.593,-26.501 573.583,-31.9165 568.686,-30.9086 568.686,-30.9086 568.686,-30.9086 573.583,-31.9165 567.779,-35.3163 578.481,-32.9243 578.481,-32.9243"/>
<text text-anchor="middle" x="800.094" y="-146.3" font-family="Times,serif" font-size="14.00">active_admin_comments</text>
</g>
<!-- Issue -->
<g id="node7" class="node"><title>Issue</title>
<ellipse fill="none" stroke="black" cx="499.094" cy="-106" rx="28.3955" ry="18"/>
<text text-anchor="middle" x="499.094" y="-102.3" font-family="Times,serif" font-size="14.00">Issue</text>
</g>
<!-- Issue&#45;&gt;ActiveAdmin::Comment -->
<g id="edge9" class="edge"><title>Issue&#45;&gt;ActiveAdmin::Comment</title>
<path fill="none" stroke="#4f8d28" d="M499.094,-79.3391C499.094,-68.8546 499.094,-56.7182 499.094,-46.091"/>
<ellipse fill="none" stroke="#4f8d28" cx="499.094" cy="-83.5966" rx="4" ry="4"/>
<polygon fill="#4f8d28" stroke="#4f8d28" points="499.094,-46.084 503.594,-36.084 499.094,-41.084 499.094,-36.084 499.094,-36.084 499.094,-36.084 499.094,-41.084 494.594,-36.0841 499.094,-46.084 499.094,-46.084"/>
<text text-anchor="middle" x="568.094" y="-58.3" font-family="Times,serif" font-size="14.00">active_admin_comments</text>
</g>
<!-- Mention&#45;&gt;ActiveAdmin::Comment -->
<g id="edge10" class="edge"><title>Mention&#45;&gt;ActiveAdmin::Comment</title>
<path fill="none" stroke="#08a064" d="M375.613,-88.7391C359.946,-79.2933 347.094,-66.764 357.094,-54 364.732,-44.2512 387.168,-36.85 412.015,-31.4227"/>
<ellipse fill="none" stroke="#08a064" cx="379.45" cy="-90.8934" rx="4.00002" ry="4.00002"/>
<polygon fill="#08a064" stroke="#08a064" points="412.214,-31.3818 422.916,-33.7724 417.111,-30.3734 422.009,-29.3649 422.009,-29.3649 422.009,-29.3649 417.111,-30.3734 421.101,-24.9574 412.214,-31.3818 412.214,-31.3818"/>
<text text-anchor="middle" x="426.094" y="-58.3" font-family="Times,serif" font-size="14.00">active_admin_comments</text>
</g>
<!-- Party -->
<g id="node9" class="node"><title>Party</title>
<ellipse fill="none" stroke="black" cx="853.094" cy="-289" rx="29.3722" ry="18"/>
<text text-anchor="middle" x="853.094" y="-285.3" font-family="Times,serif" font-size="14.00">Party</text>
</g>
<!-- Party&#45;&gt;Politician -->
<g id="edge11" class="edge"><title>Party&#45;&gt;Politician</title>
<path fill="none" stroke="#cfa87b" d="M822.039,-274.8C803.383,-267.098 779.075,-257.462 757.094,-250 707.624,-233.206 649.891,-217.216 610.548,-206.85"/>
<ellipse fill="none" stroke="#cfa87b" cx="825.972" cy="-276.435" rx="4.00001" ry="4.00001"/>
<polygon fill="#cfa87b" stroke="#cfa87b" points="610.383,-206.807 601.849,-199.921 605.546,-205.541 600.709,-204.274 600.709,-204.274 600.709,-204.274 605.546,-205.541 599.569,-208.627 610.383,-206.807 610.383,-206.807"/>
</g>
<!-- Party&#45;&gt;ActiveAdmin::Comment -->
<g id="edge12" class="edge"><title>Party&#45;&gt;ActiveAdmin::Comment</title>
<path fill="none" stroke="#bb73e3" d="M868.814,-265.347C898.696,-219.267 956.025,-113.921 901.094,-54 881.535,-32.6644 719.699,-24.2895 607.432,-21.033"/>
<ellipse fill="none" stroke="#bb73e3" cx="866.48" cy="-268.88" rx="4.00002" ry="4.00002"/>
<polygon fill="#bb73e3" stroke="#bb73e3" points="607.404,-21.0323 597.534,-16.2537 602.406,-20.8921 597.408,-20.7519 597.408,-20.7519 597.408,-20.7519 602.406,-20.8921 597.282,-25.2501 607.404,-21.0323 607.404,-21.0323"/>
<text text-anchor="middle" x="990.094" y="-146.3" font-family="Times,serif" font-size="14.00">active_admin_comments</text>
</g>
<!-- Page -->
<g id="node10" class="node"><title>Page</title>
<ellipse fill="none" stroke="black" cx="786.094" cy="-106" rx="27.4223" ry="18"/>
<text text-anchor="middle" x="786.094" y="-102.3" font-family="Times,serif" font-size="14.00">Page</text>
</g>
<!-- Page&#45;&gt;ActiveAdmin::Comment -->
<g id="edge13" class="edge"><title>Page&#45;&gt;ActiveAdmin::Comment</title>
<path fill="none" stroke="#4ba84d" d="M771.672,-82.3284C763.891,-72.0053 753.363,-60.6348 741.094,-54 716.795,-40.8597 654.654,-32.034 599.429,-26.5322"/>
<ellipse fill="none" stroke="#4ba84d" cx="774.05" cy="-85.6488" rx="4.00002" ry="4.00002"/>
<polygon fill="#4ba84d" stroke="#4ba84d" points="599.162,-26.5065 589.642,-21.0642 594.185,-26.0249 589.208,-25.5433 589.208,-25.5433 589.208,-25.5433 594.185,-26.0249 588.775,-30.0224 599.162,-26.5065 599.162,-26.5065"/>
<text text-anchor="middle" x="828.094" y="-58.3" font-family="Times,serif" font-size="14.00">active_admin_comments</text>
</g>
<!-- Politician&#45;&gt;Mention -->
<g id="edge14" class="edge"><title>Politician&#45;&gt;Mention</title>
<path fill="none" stroke="#2bf2d4" d="M532.129,-175.033C506.305,-160.517 470.092,-140.162 444.016,-125.505"/>
<ellipse fill="none" stroke="#2bf2d4" cx="535.685" cy="-177.031" rx="4.00002" ry="4.00002"/>
<polygon fill="#2bf2d4" stroke="#2bf2d4" points="443.966,-125.477 437.453,-116.654 439.607,-123.027 435.248,-120.577 435.248,-120.577 435.248,-120.577 439.607,-123.027 433.043,-124.5 443.966,-125.477 443.966,-125.477"/>
</g>
<!-- Politician&#45;&gt;ActiveAdmin::Comment -->
<g id="edge15" class="edge"><title>Politician&#45;&gt;ActiveAdmin::Comment</title>
<path fill="none" stroke="#6ca865" d="M560.342,-167.783C558.344,-144.376 559.392,-109.937 578.094,-88 596.156,-66.8132 621.475,-92.3365 638.094,-70 642.339,-64.2948 642.466,-59.6087 638.094,-54 630.699,-44.512 609.065,-37.1986 585.001,-31.7705"/>
<ellipse fill="none" stroke="#6ca865" cx="560.772" cy="-171.885" rx="4" ry="4"/>
<polygon fill="#6ca865" stroke="#6ca865" points="584.729,-31.7127 575.883,-25.2318 579.838,-30.6731 574.948,-29.6335 574.948,-29.6335 574.948,-29.6335 579.838,-30.6731 574.012,-34.0351 584.729,-31.7127 584.729,-31.7127"/>
<text text-anchor="middle" x="647.094" y="-102.3" font-family="Times,serif" font-size="14.00">active_admin_comments</text>
</g>
</g>
</svg>
