<?xml version="1.0" encoding="UTF-8" standalone="no"?>
<!DOCTYPE svg PUBLIC "-//W3C//DTD SVG 1.1//EN"
 "http://www.w3.org/Graphics/SVG/1.1/DTD/svg11.dtd">
<!-- Generated by graphviz version 2.36.0 (20140111.2315)
 -->
<!-- Title: models_diagram Pages: 1 -->
<svg width="1863pt" height="1002pt"
 viewBox="0.00 0.00 1863.06 1002.00" xmlns="http://www.w3.org/2000/svg" xmlns:xlink="http://www.w3.org/1999/xlink">
<g id="graph0" class="graph" transform="scale(1 1) rotate(0) translate(4 998)">
<title>models_diagram</title>
<polygon fill="none" stroke="none" points="-4,4 -4,-998 1859.06,-998 1859.06,4 -4,4"/>
<!-- _diagram_info -->
<g id="node1" class="node"><title>_diagram_info</title>
<text text-anchor="start" x="256.059" y="-867.6" font-family="Times,serif" font-size="13.00">Models diagram</text>
<text text-anchor="start" x="256.059" y="-853.6" font-family="Times,serif" font-size="13.00">Date: Jun 10 2018 &#45; 07:37</text>
<text text-anchor="start" x="256.059" y="-839.6" font-family="Times,serif" font-size="13.00">Migration version: 20110917175511</text>
<text text-anchor="start" x="256.059" y="-825.6" font-family="Times,serif" font-size="13.00">Generated by RailRoady 1.5.3</text>
<text text-anchor="start" x="256.059" y="-811.6" font-family="Times,serif" font-size="13.00">http://railroady.prestonlee.com</text>
</g>
<!-- Map -->
<g id="node2" class="node"><title>Map</title>
<path fill="none" stroke="black" d="M30.5585,-390C30.5585,-390 273.559,-390 273.559,-390 279.559,-390 285.559,-396 285.559,-402 285.559,-402 285.559,-544 285.559,-544 285.559,-550 279.559,-556 273.559,-556 273.559,-556 30.5585,-556 30.5585,-556 24.5585,-556 18.5585,-550 18.5585,-544 18.5585,-544 18.5585,-402 18.5585,-402 18.5585,-396 24.5585,-390 30.5585,-390"/>
<text text-anchor="middle" x="152.059" y="-540.8" font-family="Times,serif" font-size="14.00">Map</text>
<polyline fill="none" stroke="black" points="18.5585,-533 285.559,-533 "/>
<text text-anchor="start" x="26.5585" y="-517.8" font-family="Times,serif" font-size="14.00">id :integer</text>
<text text-anchor="start" x="26.5585" y="-502.8" font-family="Times,serif" font-size="14.00">name :character varying(510)</text>
<text text-anchor="start" x="26.5585" y="-487.8" font-family="Times,serif" font-size="14.00">description :text</text>
<text text-anchor="start" x="26.5585" y="-472.8" font-family="Times,serif" font-size="14.00">image_file_name :character varying(510)</text>
<text text-anchor="start" x="26.5585" y="-457.8" font-family="Times,serif" font-size="14.00">image_content_type :character varying(510)</text>
<text text-anchor="start" x="26.5585" y="-442.8" font-family="Times,serif" font-size="14.00">image_file_size :integer</text>
<text text-anchor="start" x="26.5585" y="-427.8" font-family="Times,serif" font-size="14.00">image_updated_at :timestamp with time zone</text>
<text text-anchor="start" x="26.5585" y="-412.8" font-family="Times,serif" font-size="14.00">created_at :timestamp with time zone</text>
<text text-anchor="start" x="26.5585" y="-397.8" font-family="Times,serif" font-size="14.00">updated_at :timestamp with time zone</text>
</g>
<!-- Polygon -->
<g id="node4" class="node"><title>Polygon</title>
<path fill="none" stroke="black" d="M192.559,-88.5C192.559,-88.5 395.559,-88.5 395.559,-88.5 401.559,-88.5 407.559,-94.5 407.559,-100.5 407.559,-100.5 407.559,-227.5 407.559,-227.5 407.559,-233.5 401.559,-239.5 395.559,-239.5 395.559,-239.5 192.559,-239.5 192.559,-239.5 186.559,-239.5 180.559,-233.5 180.559,-227.5 180.559,-227.5 180.559,-100.5 180.559,-100.5 180.559,-94.5 186.559,-88.5 192.559,-88.5"/>
<text text-anchor="middle" x="294.059" y="-224.3" font-family="Times,serif" font-size="14.00">Polygon</text>
<polyline fill="none" stroke="black" points="180.559,-216.5 407.559,-216.5 "/>
<text text-anchor="start" x="188.559" y="-201.3" font-family="Times,serif" font-size="14.00">id :integer</text>
<text text-anchor="start" x="188.559" y="-186.3" font-family="Times,serif" font-size="14.00">constituency_id :integer</text>
<text text-anchor="start" x="188.559" y="-171.3" font-family="Times,serif" font-size="14.00">map_id :integer</text>
<text text-anchor="start" x="188.559" y="-156.3" font-family="Times,serif" font-size="14.00">coordinates :text</text>
<text text-anchor="start" x="188.559" y="-141.3" font-family="Times,serif" font-size="14.00">link_type :character varying(510)</text>
<text text-anchor="start" x="188.559" y="-126.3" font-family="Times,serif" font-size="14.00">created_at :timestamp with time zone</text>
<text text-anchor="start" x="188.559" y="-111.3" font-family="Times,serif" font-size="14.00">updated_at :timestamp with time zone</text>
<text text-anchor="start" x="188.559" y="-96.3" font-family="Times,serif" font-size="14.00">submap_id :integer</text>
</g>
<!-- Map&#45;&gt;Polygon -->
<g id="edge1" class="edge"><title>Map&#45;&gt;Polygon</title>
<path fill="none" stroke="#f4cec9" d="M193.572,-382.249C213.058,-340.12 236.148,-290.2 255.278,-248.843"/>
<ellipse fill="none" stroke="#f4cec9" cx="191.791" cy="-386.099" rx="4.00002" ry="4.00002"/>
<polygon fill="#f4cec9" stroke="#f4cec9" points="255.349,-248.689 263.631,-241.502 257.448,-244.151 259.547,-239.613 259.547,-239.613 259.547,-239.613 257.448,-244.151 255.463,-237.724 255.349,-248.689 255.349,-248.689"/>
</g>
<!-- ActiveAdmin::Comment -->
<g id="node12" class="node"><title>ActiveAdmin::Comment</title>
<ellipse fill="none" stroke="black" cx="825.059" cy="-18" rx="99.1619" ry="18"/>
<text text-anchor="middle" x="825.059" y="-14.3" font-family="Times,serif" font-size="14.00">ActiveAdmin::Comment</text>
</g>
<!-- Map&#45;&gt;ActiveAdmin::Comment -->
<g id="edge2" class="edge"><title>Map&#45;&gt;ActiveAdmin::Comment</title>
<path fill="none" stroke="#1dfdd4" d="M81.5142,-383.19C23.1479,-298.322 -39.4126,-171.317 33.0585,-88 77.0129,-37.4675 509.606,-23.8967 716.241,-20.2883"/>
<ellipse fill="none" stroke="#1dfdd4" cx="83.9602" cy="-386.707" rx="4.00002" ry="4.00002"/>
<polygon fill="#1dfdd4" stroke="#1dfdd4" points="716.511,-20.2838 726.586,-24.6133 721.51,-20.1989 726.51,-20.1139 726.51,-20.1139 726.51,-20.1139 721.51,-20.1989 726.433,-15.6146 716.511,-20.2838 716.511,-20.2838"/>
<text text-anchor="middle" x="102.059" y="-160.3" font-family="Times,serif" font-size="14.00">active_admin_comments</text>
</g>
<!-- AdminUser -->
<g id="node3" class="node"><title>AdminUser</title>
<path fill="none" stroke="black" d="M1571.06,-730C1571.06,-730 1843.06,-730 1843.06,-730 1849.06,-730 1855.06,-736 1855.06,-742 1855.06,-742 1855.06,-944 1855.06,-944 1855.06,-950 1849.06,-956 1843.06,-956 1843.06,-956 1571.06,-956 1571.06,-956 1565.06,-956 1559.06,-950 1559.06,-944 1559.06,-944 1559.06,-742 1559.06,-742 1559.06,-736 1565.06,-730 1571.06,-730"/>
<text text-anchor="middle" x="1707.06" y="-940.8" font-family="Times,serif" font-size="14.00">AdminUser</text>
<polyline fill="none" stroke="black" points="1559.06,-933 1855.06,-933 "/>
<text text-anchor="start" x="1567.06" y="-917.8" font-family="Times,serif" font-size="14.00">id :integer</text>
<text text-anchor="start" x="1567.06" y="-902.8" font-family="Times,serif" font-size="14.00">email :character varying(510)</text>
<text text-anchor="start" x="1567.06" y="-887.8" font-family="Times,serif" font-size="14.00">encrypted_password :character varying(256)</text>
<text text-anchor="start" x="1567.06" y="-872.8" font-family="Times,serif" font-size="14.00">reset_password_token :character varying(510)</text>
<text text-anchor="start" x="1567.06" y="-857.8" font-family="Times,serif" font-size="14.00">reset_password_sent_at :timestamp with time zone</text>
<text text-anchor="start" x="1567.06" y="-842.8" font-family="Times,serif" font-size="14.00">remember_created_at :timestamp with time zone</text>
<text text-anchor="start" x="1567.06" y="-827.8" font-family="Times,serif" font-size="14.00">sign_in_count :integer</text>
<text text-anchor="start" x="1567.06" y="-812.8" font-family="Times,serif" font-size="14.00">current_sign_in_at :timestamp with time zone</text>
<text text-anchor="start" x="1567.06" y="-797.8" font-family="Times,serif" font-size="14.00">last_sign_in_at :timestamp with time zone</text>
<text text-anchor="start" x="1567.06" y="-782.8" font-family="Times,serif" font-size="14.00">current_sign_in_ip :character varying(510)</text>
<text text-anchor="start" x="1567.06" y="-767.8" font-family="Times,serif" font-size="14.00">last_sign_in_ip :character varying(510)</text>
<text text-anchor="start" x="1567.06" y="-752.8" font-family="Times,serif" font-size="14.00">created_at :timestamp with time zone</text>
<text text-anchor="start" x="1567.06" y="-737.8" font-family="Times,serif" font-size="14.00">updated_at :timestamp with time zone</text>
</g>
<!-- Polygon&#45;&gt;ActiveAdmin::Comment -->
<g id="edge3" class="edge"><title>Polygon&#45;&gt;ActiveAdmin::Comment</title>
<path fill="none" stroke="#d3ae82" d="M276.564,-80.4755C278.237,-70.6483 282.058,-61.4723 289.059,-54 317.533,-23.6058 567.283,-18.5878 715.616,-18.3304"/>
<ellipse fill="none" stroke="#d3ae82" cx="276.111" cy="-84.5013" rx="4.00001" ry="4.00001"/>
<polygon fill="#d3ae82" stroke="#d3ae82" points="715.676,-18.3304 725.68,-22.8199 720.676,-18.3251 725.676,-18.3199 725.676,-18.3199 725.676,-18.3199 720.676,-18.3251 725.671,-13.8199 715.676,-18.3304 715.676,-18.3304"/>
<text text-anchor="middle" x="358.059" y="-58.3" font-family="Times,serif" font-size="14.00">active_admin_comments</text>
</g>
<!-- NewsArticle -->
<g id="node5" class="node"><title>NewsArticle</title>
<path fill="none" stroke="black" d="M492.559,-752.5C492.559,-752.5 695.559,-752.5 695.559,-752.5 701.559,-752.5 707.559,-758.5 707.559,-764.5 707.559,-764.5 707.559,-921.5 707.559,-921.5 707.559,-927.5 701.559,-933.5 695.559,-933.5 695.559,-933.5 492.559,-933.5 492.559,-933.5 486.559,-933.5 480.559,-927.5 480.559,-921.5 480.559,-921.5 480.559,-764.5 480.559,-764.5 480.559,-758.5 486.559,-752.5 492.559,-752.5"/>
<text text-anchor="middle" x="594.059" y="-918.3" font-family="Times,serif" font-size="14.00">NewsArticle</text>
<polyline fill="none" stroke="black" points="480.559,-910.5 707.559,-910.5 "/>
<text text-anchor="start" x="488.559" y="-895.3" font-family="Times,serif" font-size="14.00">id :integer</text>
<text text-anchor="start" x="488.559" y="-880.3" font-family="Times,serif" font-size="14.00">title :character varying(510)</text>
<text text-anchor="start" x="488.559" y="-865.3" font-family="Times,serif" font-size="14.00">source :character varying(510)</text>
<text text-anchor="start" x="488.559" y="-850.3" font-family="Times,serif" font-size="14.00">pubdate :timestamp with time zone</text>
<text text-anchor="start" x="488.559" y="-835.3" font-family="Times,serif" font-size="14.00">gnews_url :text</text>
<text text-anchor="start" x="488.559" y="-820.3" font-family="Times,serif" font-size="14.00">url :character varying(510)</text>
<text text-anchor="start" x="488.559" y="-805.3" font-family="Times,serif" font-size="14.00">moderation :character varying(510)</text>
<text text-anchor="start" x="488.559" y="-790.3" font-family="Times,serif" font-size="14.00">rejection :text</text>
<text text-anchor="start" x="488.559" y="-775.3" font-family="Times,serif" font-size="14.00">created_at :timestamp with time zone</text>
<text text-anchor="start" x="488.559" y="-760.3" font-family="Times,serif" font-size="14.00">updated_at :timestamp with time zone</text>
</g>
<!-- Mention -->
<g id="node8" class="node"><title>Mention</title>
<path fill="none" stroke="black" d="M481.559,-103.5C481.559,-103.5 684.559,-103.5 684.559,-103.5 690.559,-103.5 696.559,-109.5 696.559,-115.5 696.559,-115.5 696.559,-212.5 696.559,-212.5 696.559,-218.5 690.559,-224.5 684.559,-224.5 684.559,-224.5 481.559,-224.5 481.559,-224.5 475.559,-224.5 469.559,-218.5 469.559,-212.5 469.559,-212.5 469.559,-115.5 469.559,-115.5 469.559,-109.5 475.559,-103.5 481.559,-103.5"/>
<text text-anchor="middle" x="583.059" y="-209.3" font-family="Times,serif" font-size="14.00">Mention</text>
<polyline fill="none" stroke="black" points="469.559,-201.5 696.559,-201.5 "/>
<text text-anchor="start" x="477.559" y="-186.3" font-family="Times,serif" font-size="14.00">id :integer</text>
<text text-anchor="start" x="477.559" y="-171.3" font-family="Times,serif" font-size="14.00">politician_id :integer</text>
<text text-anchor="start" x="477.559" y="-156.3" font-family="Times,serif" font-size="14.00">news_article_id :integer</text>
<text text-anchor="start" x="477.559" y="-141.3" font-family="Times,serif" font-size="14.00">summary :text</text>
<text text-anchor="start" x="477.559" y="-126.3" font-family="Times,serif" font-size="14.00">created_at :timestamp with time zone</text>
<text text-anchor="start" x="477.559" y="-111.3" font-family="Times,serif" font-size="14.00">updated_at :timestamp with time zone</text>
</g>
<!-- NewsArticle&#45;&gt;Mention -->
<g id="edge4" class="edge"><title>NewsArticle&#45;&gt;Mention</title>
<path fill="none" stroke="#f34e77" d="M592.468,-744.082C590.22,-605.736 586.169,-356.421 584.198,-235.11"/>
<ellipse fill="none" stroke="#f34e77" cx="592.538" cy="-748.45" rx="4" ry="4"/>
<polygon fill="#f34e77" stroke="#f34e77" points="584.193,-234.834 588.53,-224.762 584.112,-229.835 584.031,-224.835 584.031,-224.835 584.031,-224.835 584.112,-229.835 579.531,-224.908 584.193,-234.834 584.193,-234.834"/>
</g>
<!-- Politician -->
<g id="node11" class="node"><title>Politician</title>
<path fill="none" stroke="black" d="M856.559,-292.5C856.559,-292.5 1099.56,-292.5 1099.56,-292.5 1105.56,-292.5 1111.56,-298.5 1111.56,-304.5 1111.56,-304.5 1111.56,-641.5 1111.56,-641.5 1111.56,-647.5 1105.56,-653.5 1099.56,-653.5 1099.56,-653.5 856.559,-653.5 856.559,-653.5 850.559,-653.5 844.559,-647.5 844.559,-641.5 844.559,-641.5 844.559,-304.5 844.559,-304.5 844.559,-298.5 850.559,-292.5 856.559,-292.5"/>
<text text-anchor="middle" x="978.059" y="-638.3" font-family="Times,serif" font-size="14.00">Politician</text>
<polyline fill="none" stroke="black" points="844.559,-630.5 1111.56,-630.5 "/>
<text text-anchor="start" x="852.559" y="-615.3" font-family="Times,serif" font-size="14.00">id :integer</text>
<text text-anchor="start" x="852.559" y="-600.3" font-family="Times,serif" font-size="14.00">name :character varying(510)</text>
<text text-anchor="start" x="852.559" y="-585.3" font-family="Times,serif" font-size="14.00">incumbent :boolean</text>
<text text-anchor="start" x="852.559" y="-570.3" font-family="Times,serif" font-size="14.00">website :character varying(510)</text>
<text text-anchor="start" x="852.559" y="-555.3" font-family="Times,serif" font-size="14.00">incumbent_website :character varying(510)</text>
<text text-anchor="start" x="852.559" y="-540.3" font-family="Times,serif" font-size="14.00">facebook :character varying(510)</text>
<text text-anchor="start" x="852.559" y="-525.3" font-family="Times,serif" font-size="14.00">twitter :character varying(510)</text>
<text text-anchor="start" x="852.559" y="-510.3" font-family="Times,serif" font-size="14.00">youtube :character varying(510)</text>
<text text-anchor="start" x="852.559" y="-495.3" font-family="Times,serif" font-size="14.00">office_address :character varying(510)</text>
<text text-anchor="start" x="852.559" y="-480.3" font-family="Times,serif" font-size="14.00">phone_number :character varying(510)</text>
<text text-anchor="start" x="852.559" y="-465.3" font-family="Times,serif" font-size="14.00">email :character varying(510)</text>
<text text-anchor="start" x="852.559" y="-450.3" font-family="Times,serif" font-size="14.00">image_file_name :character varying(510)</text>
<text text-anchor="start" x="852.559" y="-435.3" font-family="Times,serif" font-size="14.00">image_content_type :character varying(510)</text>
<text text-anchor="start" x="852.559" y="-420.3" font-family="Times,serif" font-size="14.00">image_file_size :integer</text>
<text text-anchor="start" x="852.559" y="-405.3" font-family="Times,serif" font-size="14.00">image_updated_at :timestamp with time zone</text>
<text text-anchor="start" x="852.559" y="-390.3" font-family="Times,serif" font-size="14.00">constituency_id :integer</text>
<text text-anchor="start" x="852.559" y="-375.3" font-family="Times,serif" font-size="14.00">created_at :timestamp with time zone</text>
<text text-anchor="start" x="852.559" y="-360.3" font-family="Times,serif" font-size="14.00">updated_at :timestamp with time zone</text>
<text text-anchor="start" x="852.559" y="-345.3" font-family="Times,serif" font-size="14.00">party_id :integer</text>
<text text-anchor="start" x="852.559" y="-330.3" font-family="Times,serif" font-size="14.00">incumbency_year :integer</text>
<text text-anchor="start" x="852.559" y="-315.3" font-family="Times,serif" font-size="14.00">party_leader :boolean</text>
<text text-anchor="start" x="852.559" y="-300.3" font-family="Times,serif" font-size="14.00">questionnaire :text</text>
</g>
<!-- NewsArticle&#45;&gt;Politician -->
<g id="edge5" class="edge"><title>NewsArticle&#45;&gt;Politician</title>
<path fill="none" stroke="#8f3e83" d="M694.773,-745.482C738.325,-703.744 790.045,-654.18 837.297,-608.897"/>
<polygon fill="#8f3e83" stroke="#8f3e83" points="694.724,-745.529 684.391,-749.199 691.114,-748.988 687.504,-752.448 687.504,-752.448 687.504,-752.448 691.114,-748.988 690.618,-755.697 694.724,-745.529 694.724,-745.529"/>
<polygon fill="#8f3e83" stroke="#8f3e83" points="837.317,-608.878 847.65,-605.207 840.927,-605.418 844.537,-601.958 844.537,-601.958 844.537,-601.958 840.927,-605.418 841.423,-598.71 837.317,-608.878 837.317,-608.878"/>
</g>
<!-- NewsArticle&#45;&gt;ActiveAdmin::Comment -->
<g id="edge6" class="edge"><title>NewsArticle&#45;&gt;ActiveAdmin::Comment</title>
<path fill="none" stroke="#c26ce4" d="M557.936,-744.607C493.529,-563.024 373.385,-182.578 460.059,-88 494.619,-50.2881 626.504,-32.8187 721.825,-24.9855"/>
<ellipse fill="none" stroke="#c26ce4" cx="559.335" cy="-748.539" rx="4.00001" ry="4.00001"/>
<polygon fill="#c26ce4" stroke="#c26ce4" points="721.833,-24.9849 732.16,-28.6753 726.818,-24.5872 731.802,-24.1896 731.802,-24.1896 731.802,-24.1896 726.818,-24.5872 731.444,-19.7038 721.833,-24.9849 721.833,-24.9849"/>
<text text-anchor="middle" x="503.059" y="-262.3" font-family="Times,serif" font-size="14.00">active_admin_comments</text>
</g>
<!-- Constituency -->
<g id="node6" class="node"><title>Constituency</title>
<path fill="none" stroke="black" d="M979.559,-745C979.559,-745 1222.56,-745 1222.56,-745 1228.56,-745 1234.56,-751 1234.56,-757 1234.56,-757 1234.56,-929 1234.56,-929 1234.56,-935 1228.56,-941 1222.56,-941 1222.56,-941 979.559,-941 979.559,-941 973.559,-941 967.559,-935 967.559,-929 967.559,-929 967.559,-757 967.559,-757 967.559,-751 973.559,-745 979.559,-745"/>
<text text-anchor="middle" x="1101.06" y="-925.8" font-family="Times,serif" font-size="14.00">Constituency</text>
<polyline fill="none" stroke="black" points="967.559,-918 1234.56,-918 "/>
<text text-anchor="start" x="975.559" y="-902.8" font-family="Times,serif" font-size="14.00">id :integer</text>
<text text-anchor="start" x="975.559" y="-887.8" font-family="Times,serif" font-size="14.00">name :character varying(510)</text>
<text text-anchor="start" x="975.559" y="-872.8" font-family="Times,serif" font-size="14.00">image_file_name :character varying(510)</text>
<text text-anchor="start" x="975.559" y="-857.8" font-family="Times,serif" font-size="14.00">image_content_type :character varying(510)</text>
<text text-anchor="start" x="975.559" y="-842.8" font-family="Times,serif" font-size="14.00">image_file_size :integer</text>
<text text-anchor="start" x="975.559" y="-827.8" font-family="Times,serif" font-size="14.00">image_updated_at :timestamp with time zone</text>
<text text-anchor="start" x="975.559" y="-812.8" font-family="Times,serif" font-size="14.00">created_at :timestamp with time zone</text>
<text text-anchor="start" x="975.559" y="-797.8" font-family="Times,serif" font-size="14.00">updated_at :timestamp with time zone</text>
<text text-anchor="start" x="975.559" y="-782.8" font-family="Times,serif" font-size="14.00">pdf_map_url :character varying(510)</text>
<text text-anchor="start" x="975.559" y="-767.8" font-family="Times,serif" font-size="14.00">region :character varying(510)</text>
<text text-anchor="start" x="975.559" y="-752.8" font-family="Times,serif" font-size="14.00">description :text</text>
</g>
<!-- Constituency&#45;&gt;Politician -->
<g id="edge7" class="edge"><title>Constituency&#45;&gt;Politician</title>
<path fill="none" stroke="#1c4ab3" d="M1066.02,-737.173C1058.28,-714.003 1049.84,-688.763 1041.36,-663.387"/>
<ellipse fill="none" stroke="#1c4ab3" cx="1067.31" cy="-741.037" rx="4.00001" ry="4.00001"/>
<polygon fill="#1c4ab3" stroke="#1c4ab3" points="1041.28,-663.143 1042.38,-652.232 1039.69,-658.401 1038.11,-653.658 1038.11,-653.658 1038.11,-653.658 1039.69,-658.401 1033.84,-655.085 1041.28,-663.143 1041.28,-663.143"/>
</g>
<!-- Constituency&#45;&gt;ActiveAdmin::Comment -->
<g id="edge8" class="edge"><title>Constituency&#45;&gt;ActiveAdmin::Comment</title>
<path fill="none" stroke="#e1db5c" d="M1120.09,-736.757C1150.71,-553.416 1200.08,-185.641 1123.06,-88 1098.15,-56.4271 998.418,-38.0618 921.108,-28.3272"/>
<ellipse fill="none" stroke="#e1db5c" cx="1119.4" cy="-740.865" rx="4.00001" ry="4.00001"/>
<polygon fill="#e1db5c" stroke="#e1db5c" points="920.765,-28.2852 911.388,-22.6013 915.803,-27.6765 910.84,-27.0678 910.84,-27.0678 910.84,-27.0678 915.803,-27.6765 910.292,-31.5343 920.765,-28.2852 920.765,-28.2852"/>
<text text-anchor="middle" x="1232.06" y="-262.3" font-family="Times,serif" font-size="14.00">active_admin_comments</text>
</g>
<!-- Issue -->
<g id="node7" class="node"><title>Issue</title>
<path fill="none" stroke="black" d="M726.559,-103.5C726.559,-103.5 929.559,-103.5 929.559,-103.5 935.559,-103.5 941.559,-109.5 941.559,-115.5 941.559,-115.5 941.559,-212.5 941.559,-212.5 941.559,-218.5 935.559,-224.5 929.559,-224.5 929.559,-224.5 726.559,-224.5 726.559,-224.5 720.559,-224.5 714.559,-218.5 714.559,-212.5 714.559,-212.5 714.559,-115.5 714.559,-115.5 714.559,-109.5 720.559,-103.5 726.559,-103.5"/>
<text text-anchor="middle" x="828.059" y="-209.3" font-family="Times,serif" font-size="14.00">Issue</text>
<polyline fill="none" stroke="black" points="714.559,-201.5 941.559,-201.5 "/>
<text text-anchor="start" x="722.559" y="-186.3" font-family="Times,serif" font-size="14.00">id :integer</text>
<text text-anchor="start" x="722.559" y="-171.3" font-family="Times,serif" font-size="14.00">title :character varying(510)</text>
<text text-anchor="start" x="722.559" y="-156.3" font-family="Times,serif" font-size="14.00">url :character varying(510)</text>
<text text-anchor="start" x="722.559" y="-141.3" font-family="Times,serif" font-size="14.00">description :text</text>
<text text-anchor="start" x="722.559" y="-126.3" font-family="Times,serif" font-size="14.00">created_at :timestamp with time zone</text>
<text text-anchor="start" x="722.559" y="-111.3" font-family="Times,serif" font-size="14.00">updated_at :timestamp with time zone</text>
</g>
<!-- Issue&#45;&gt;ActiveAdmin::Comment -->
<g id="edge9" class="edge"><title>Issue&#45;&gt;ActiveAdmin::Comment</title>
<path fill="none" stroke="#caa514" d="M826.588,-95.3294C826.407,-86.8023 826.227,-78.198 826.059,-70 825.9,-62.297 825.734,-53.9395 825.584,-46.2619"/>
<ellipse fill="none" stroke="#caa514" cx="826.676" cy="-99.4663" rx="4" ry="4"/>
<polygon fill="#caa514" stroke="#caa514" points="825.578,-45.9983 829.883,-35.9126 825.481,-40.9992 825.384,-36.0002 825.384,-36.0002 825.384,-36.0002 825.481,-40.9992 820.885,-36.0878 825.578,-45.9983 825.578,-45.9983"/>
<text text-anchor="middle" x="895.059" y="-58.3" font-family="Times,serif" font-size="14.00">active_admin_comments</text>
</g>
<!-- Mention&#45;&gt;ActiveAdmin::Comment -->
<g id="edge10" class="edge"><title>Mention&#45;&gt;ActiveAdmin::Comment</title>
<path fill="none" stroke="#810a6e" d="M631.91,-97.2522C646.744,-81.0713 664.17,-65.1956 683.059,-54 699.705,-44.1331 719.026,-37.039 737.954,-31.9413"/>
<ellipse fill="none" stroke="#810a6e" cx="629.234" cy="-100.24" rx="4.00002" ry="4.00002"/>
<polygon fill="#810a6e" stroke="#810a6e" points="738.104,-31.9034 748.902,-33.8163 742.951,-30.6784 747.799,-29.4534 747.799,-29.4534 747.799,-29.4534 742.951,-30.6784 746.697,-25.0905 738.104,-31.9034 738.104,-31.9034"/>
<text text-anchor="middle" x="752.059" y="-58.3" font-family="Times,serif" font-size="14.00">active_admin_comments</text>
</g>
<!-- Party -->
<g id="node9" class="node"><title>Party</title>
<path fill="none" stroke="black" d="M1285.56,-692.5C1285.56,-692.5 1528.56,-692.5 1528.56,-692.5 1534.56,-692.5 1540.56,-698.5 1540.56,-704.5 1540.56,-704.5 1540.56,-981.5 1540.56,-981.5 1540.56,-987.5 1534.56,-993.5 1528.56,-993.5 1528.56,-993.5 1285.56,-993.5 1285.56,-993.5 1279.56,-993.5 1273.56,-987.5 1273.56,-981.5 1273.56,-981.5 1273.56,-704.5 1273.56,-704.5 1273.56,-698.5 1279.56,-692.5 1285.56,-692.5"/>
<text text-anchor="middle" x="1407.06" y="-978.3" font-family="Times,serif" font-size="14.00">Party</text>
<polyline fill="none" stroke="black" points="1273.56,-970.5 1540.56,-970.5 "/>
<text text-anchor="start" x="1281.56" y="-955.3" font-family="Times,serif" font-size="14.00">id :integer</text>
<text text-anchor="start" x="1281.56" y="-940.3" font-family="Times,serif" font-size="14.00">name :character varying(510)</text>
<text text-anchor="start" x="1281.56" y="-925.3" font-family="Times,serif" font-size="14.00">hex_colour :character varying(510)</text>
<text text-anchor="start" x="1281.56" y="-910.3" font-family="Times,serif" font-size="14.00">image_file_name :character varying(510)</text>
<text text-anchor="start" x="1281.56" y="-895.3" font-family="Times,serif" font-size="14.00">image_content_type :character varying(510)</text>
<text text-anchor="start" x="1281.56" y="-880.3" font-family="Times,serif" font-size="14.00">image_file_size :integer</text>
<text text-anchor="start" x="1281.56" y="-865.3" font-family="Times,serif" font-size="14.00">image_updated_at :timestamp with time zone</text>
<text text-anchor="start" x="1281.56" y="-850.3" font-family="Times,serif" font-size="14.00">website :character varying(510)</text>
<text text-anchor="start" x="1281.56" y="-835.3" font-family="Times,serif" font-size="14.00">created_at :timestamp with time zone</text>
<text text-anchor="start" x="1281.56" y="-820.3" font-family="Times,serif" font-size="14.00">updated_at :timestamp with time zone</text>
<text text-anchor="start" x="1281.56" y="-805.3" font-family="Times,serif" font-size="14.00">facebook :character varying(510)</text>
<text text-anchor="start" x="1281.56" y="-790.3" font-family="Times,serif" font-size="14.00">youtube :character varying(510)</text>
<text text-anchor="start" x="1281.56" y="-775.3" font-family="Times,serif" font-size="14.00">twitter :character varying(510)</text>
<text text-anchor="start" x="1281.56" y="-760.3" font-family="Times,serif" font-size="14.00">long_name :character varying(510)</text>
<text text-anchor="start" x="1281.56" y="-745.3" font-family="Times,serif" font-size="14.00">email :character varying(510)</text>
<text text-anchor="start" x="1281.56" y="-730.3" font-family="Times,serif" font-size="14.00">phone_number :character varying(510)</text>
<text text-anchor="start" x="1281.56" y="-715.3" font-family="Times,serif" font-size="14.00">address :character varying(510)</text>
<text text-anchor="start" x="1281.56" y="-700.3" font-family="Times,serif" font-size="14.00">notes :text</text>
</g>
<!-- Party&#45;&gt;Politician -->
<g id="edge11" class="edge"><title>Party&#45;&gt;Politician</title>
<path fill="none" stroke="#9b257a" d="M1267.12,-713.118C1259.02,-705.932 1250.96,-698.851 1243.06,-692 1203.43,-657.616 1159.7,-621.087 1119.38,-587.96"/>
<ellipse fill="none" stroke="#9b257a" cx="1270.33" cy="-715.973" rx="4.00002" ry="4.00002"/>
<polygon fill="#9b257a" stroke="#9b257a" points="1119.36,-587.943 1114.49,-578.121 1115.5,-584.771 1111.63,-581.599 1111.63,-581.599 1111.63,-581.599 1115.5,-584.771 1108.78,-585.077 1119.36,-587.943 1119.36,-587.943"/>
</g>
<!-- Party&#45;&gt;ActiveAdmin::Comment -->
<g id="edge12" class="edge"><title>Party&#45;&gt;ActiveAdmin::Comment</title>
<path fill="none" stroke="#1be762" d="M1454.5,-684.004C1493.48,-520.645 1525.25,-265.147 1408.06,-88 1386.74,-55.7794 1365.62,-63.0207 1328.06,-54 1255.67,-36.6168 1057.42,-26.8821 932.515,-22.3062"/>
<ellipse fill="none" stroke="#1be762" cx="1453.46" cy="-688.309" rx="4.00001" ry="4.00001"/>
<polygon fill="#1be762" stroke="#1be762" points="932.153,-22.2933 922.322,-17.4354 927.156,-22.1129 922.16,-21.9325 922.16,-21.9325 922.16,-21.9325 927.156,-22.1129 921.997,-26.4296 932.153,-22.2933 932.153,-22.2933"/>
<text text-anchor="middle" x="1547.06" y="-262.3" font-family="Times,serif" font-size="14.00">active_admin_comments</text>
</g>
<!-- Page -->
<g id="node10" class="node"><title>Page</title>
<path fill="none" stroke="black" d="M1184.56,-96C1184.56,-96 1387.56,-96 1387.56,-96 1393.56,-96 1399.56,-102 1399.56,-108 1399.56,-108 1399.56,-220 1399.56,-220 1399.56,-226 1393.56,-232 1387.56,-232 1387.56,-232 1184.56,-232 1184.56,-232 1178.56,-232 1172.56,-226 1172.56,-220 1172.56,-220 1172.56,-108 1172.56,-108 1172.56,-102 1178.56,-96 1184.56,-96"/>
<text text-anchor="middle" x="1286.06" y="-216.8" font-family="Times,serif" font-size="14.00">Page</text>
<polyline fill="none" stroke="black" points="1172.56,-209 1399.56,-209 "/>
<text text-anchor="start" x="1180.56" y="-193.8" font-family="Times,serif" font-size="14.00">id :integer</text>
<text text-anchor="start" x="1180.56" y="-178.8" font-family="Times,serif" font-size="14.00">title :character varying(510)</text>
<text text-anchor="start" x="1180.56" y="-163.8" font-family="Times,serif" font-size="14.00">content :text</text>
<text text-anchor="start" x="1180.56" y="-148.8" font-family="Times,serif" font-size="14.00">permalink :character varying(510)</text>
<text text-anchor="start" x="1180.56" y="-133.8" font-family="Times,serif" font-size="14.00">show_title :boolean</text>
<text text-anchor="start" x="1180.56" y="-118.8" font-family="Times,serif" font-size="14.00">created_at :timestamp with time zone</text>
<text text-anchor="start" x="1180.56" y="-103.8" font-family="Times,serif" font-size="14.00">updated_at :timestamp with time zone</text>
</g>
<!-- Page&#45;&gt;ActiveAdmin::Comment -->
<g id="edge13" class="edge"><title>Page&#45;&gt;ActiveAdmin::Comment</title>
<path fill="none" stroke="#8b2b24" d="M1215.85,-90.4139C1198.32,-76.1055 1178.61,-62.81 1158.06,-54 1118.42,-37.002 1012.83,-27.9497 931.077,-23.343"/>
<ellipse fill="none" stroke="#8b2b24" cx="1219.14" cy="-93.1608" rx="4.00002" ry="4.00002"/>
<polygon fill="#8b2b24" stroke="#8b2b24" points="930.71,-23.323 920.971,-18.2828 925.717,-23.0495 920.725,-22.776 920.725,-22.776 920.725,-22.776 925.717,-23.0495 920.479,-27.2693 930.71,-23.323 930.71,-23.323"/>
<text text-anchor="middle" x="1255.06" y="-58.3" font-family="Times,serif" font-size="14.00">active_admin_comments</text>
</g>
<!-- Politician&#45;&gt;Mention -->
<g id="edge14" class="edge"><title>Politician&#45;&gt;Mention</title>
<path fill="none" stroke="#f9138f" d="M837.817,-363.002C781.104,-318.924 717.497,-269.487 668.026,-231.038"/>
<ellipse fill="none" stroke="#f9138f" cx="841.171" cy="-365.609" rx="4.00002" ry="4.00002"/>
<polygon fill="#f9138f" stroke="#f9138f" points="667.795,-230.859 662.661,-221.169 663.847,-227.79 659.899,-224.722 659.899,-224.722 659.899,-224.722 663.847,-227.79 657.138,-228.275 667.795,-230.859 667.795,-230.859"/>
</g>
<!-- Politician&#45;&gt;ActiveAdmin::Comment -->
<g id="edge15" class="edge"><title>Politician&#45;&gt;ActiveAdmin::Comment</title>
<path fill="none" stroke="#ba4604" d="M981.982,-284.045C982.315,-181.859 979.011,-72.5363 964.059,-54 956.506,-44.6372 934.833,-37.3544 910.782,-31.9159"/>
<ellipse fill="none" stroke="#ba4604" cx="981.964" cy="-288.329" rx="4" ry="4"/>
<polygon fill="#ba4604" stroke="#ba4604" points="910.517,-31.8592 901.676,-25.3714 905.627,-30.8158 900.737,-29.7724 900.737,-29.7724 900.737,-29.7724 905.627,-30.8158 899.798,-34.1733 910.517,-31.8592 910.517,-31.8592"/>
<text text-anchor="middle" x="1050.06" y="-160.3" font-family="Times,serif" font-size="14.00">active_admin_comments</text>
</g>
</g>
</svg>
